<?xml version="1.0" encoding="utf-8"?>
<!-- Generator: Adobe Illustrator 15.0.2, SVG Export Plug-In . SVG Version: 6.00 Build 0)  -->
<!DOCTYPE svg PUBLIC "-//W3C//DTD SVG 1.1//EN" "http://www.w3.org/Graphics/SVG/1.1/DTD/svg11.dtd">
<svg version="1.1" id="Ebene_1" xmlns="http://www.w3.org/2000/svg" xmlns:xlink="http://www.w3.org/1999/xlink" x="0px" y="0px"
	 width="450px" height="150px" viewBox="0 0 450 150" enable-background="new 0 0 450 150" xml:space="preserve">
<g>
	<path d="M63.408,88.051c-3.126-3.974-5.826-7.408-11.416-7.256c-4.27,0.115-10.04,2.387-17.555,6.895l3.655,9.8
		c4.87-3.107,8.737-4.64,11.991-4.728c4.638-0.123,7.733,2.519,11.652,5.864c6.574,5.612,15.579,13.3,38.425,12.679
		c0.707-0.018,1.443-0.059,2.174-0.096l3.135-17.053c-8.33,2.96-15.275,4.507-21.07,4.664C72.14,99.15,67.5,93.256,63.408,88.051z"
		/>
	<path d="M72.873,80.047c-4.604-4.158-9.818-8.867-21.103-8.56c-6.036,0.163-13.151,1.767-21.588,4.802l3.247,8.701
		c7.926-4.444,14.115-6.691,18.827-6.816c6.755-0.184,9.883,3.807,13.195,8.031c3.838,4.9,7.812,9.967,17.987,9.689
		c0,0,0.001,0,0.005,0c6.004-0.162,13.516-2.179,22.828-6.108l3.162-17.206c-11.268,8.975-19.094,13.152-24.877,13.311
		C79.498,86.027,76.428,83.254,72.873,80.047z"/>
	<path d="M85.508,67.119c-3.85,0.103-7.723-0.712-12.207-1.659c-6.262-1.319-14.057-2.957-24.922-2.663
		c-6.894,0.189-14.198,1.132-22.175,2.828l3.026,8.111c8.442-2.779,15.677-4.258,21.953-4.426c12.41-0.338,18.53,4.516,23.443,8.42
		c3.436,2.723,6.4,5.074,10.636,4.961h0.001c5.636-0.152,13.496-4.834,25.063-14.965l3.455-18.793
		C100.316,63.622,92.799,66.918,85.508,67.119z"/>
	<path d="M49.758,96.879c-2.975,0.082-6.383,1.277-10.528,3.652l0.068,0.186c1.474,3.949,5.947,8.27,9.944,9.6l42.915,14.306
		c3.995,1.333,7.889-0.968,8.651-5.108l0.762-4.146c-22.382-0.166-32.184-7.453-39.432-12.854
		C57.819,99.295,54.407,96.754,49.758,96.879z"/>
	<path d="M111.347,25.416L30.051,54.032c-3.768,1.326-5.796,5.327-4.741,9.103c8.573-1.764,16.53-2.75,24.169-2.957
		c8.853-0.24,15.655,0.568,21.653,1.281c4.435,0.525,8.264,0.98,11.96,0.882c0.001,0,0.001,0,0.003,0
		c8.98-0.245,17.31-3.649,31.78-19.355l2.312-12.579C117.949,26.264,115.32,24.018,111.347,25.416z"/>
	<path d="M147.566,74.303h-4.446c-3.261,0-4.891-1.382-4.891-4.149c0-2.963,2.589-4.445,7.766-4.445c3.714,0,7.4,0.592,11.054,1.778
		v-4.743c-3.655-0.988-7.34-1.482-11.054-1.482c-8.634,0-12.953,2.965-12.953,8.893c0,6.124,3.36,9.188,10.078,9.188h4.446
		c3.458,0,5.187,1.382,5.187,4.149c0,2.963-2.48,4.445-7.439,4.445c-3.734,0-7.429-0.592-11.085-1.778v4.743
		c3.656,0.988,7.35,1.482,11.084,1.481c8.615,0,12.922-2.965,12.922-8.893C158.235,77.366,154.677,74.303,147.566,74.303z"/>
	<path d="M176.523,61.262c-3.202,0-6.483,0.494-9.841,1.482v4.447c3.359-0.989,6.639-1.482,9.841-1.482
		c5.591,0,8.388,1.789,8.388,5.365v2.934c-2.707-0.395-5.415-0.594-8.122-0.594c-8.416,0-12.625,3.191-12.625,9.574
		c0,6.264,3.704,9.396,11.114,9.396c3.657,0,7.033-1.029,10.136-3.084l1.897,3.084h3.082V70.926
		C190.393,64.484,185.769,61.262,176.523,61.262z M184.911,84.915c-2.629,2.015-5.84,3.022-9.633,3.022
		c-3.755,0-5.633-1.68-5.633-5.039c0-3.358,2.381-5.039,7.144-5.039c2.707,0,5.415,0.199,8.122,0.594V84.915z"/>
	<path d="M214.461,61.262c-3.813,0-7.311,1.327-10.493,3.973l-0.978-3.973h-3.705v31.122h5.484V69.769
		c2.825-2.629,5.808-3.943,8.951-3.943c4.604,0,6.906,2.313,6.906,6.937v19.622h5.481V72.852
		C226.107,65.125,222.226,61.262,214.461,61.262z"/>
	<path d="M255.896,62.744c-2.393-0.988-4.93-1.482-7.617-1.482c-9.84,0-14.762,4.979-14.762,14.939
		c0,10.788,4.633,16.184,13.901,16.184c5.532,0,10.187-0.623,13.959-1.867V50h-5.481V62.744z M255.896,86.662
		c-2.213,0.77-4.744,1.156-7.588,1.156c-6.264,0-9.396-3.942-9.396-11.825c0-6.659,3.132-9.988,9.396-9.988
		c2.844,0,5.375,0.534,7.588,1.6V86.662z"/>
	<path d="M283.311,74.303h-4.444c-3.261,0-4.892-1.382-4.892-4.149c0-2.963,2.59-4.445,7.767-4.445
		c3.713,0,7.399,0.592,11.054,1.778v-4.743c-3.656-0.988-7.341-1.482-11.054-1.482c-8.636,0-12.953,2.965-12.953,8.893
		c0,6.124,3.36,9.188,10.078,9.188h4.444c3.459,0,5.188,1.382,5.188,4.149c0,2.963-2.479,4.445-7.438,4.445
		c-3.735,0-7.431-0.592-11.086-1.778v4.743c3.655,0.988,7.35,1.482,11.084,1.481c8.615,0,12.922-2.965,12.922-8.893
		C293.98,77.366,290.425,74.303,283.311,74.303z"/>
	<path d="M304.83,56.225h-3.439v27.77c0,5.592,2.609,8.389,7.826,8.389h5.216v-4.446h-3.793c-2.511,0-3.765-1.453-3.765-4.356
		V65.709h7.558v-4.447h-8.418L304.83,56.225z"/>
	<path d="M334.734,61.261c-9.879,0-14.818,5.188-14.818,15.562c0.04,10.354,4.98,15.53,14.818,15.53
		c9.88,0,14.819-5.177,14.819-15.53C349.554,66.449,344.614,61.261,334.734,61.261z M334.734,87.938
		c-6.223,0-9.336-3.746-9.336-11.231c0-7.331,3.112-10.996,9.336-10.996s9.338,3.665,9.338,10.996
		C344.072,84.193,340.958,87.938,334.734,87.938z"/>
	<path d="M360.669,61.262h-3.704v31.122h5.482V69.769c2.312-2.629,5.327-3.943,9.041-3.943v-4.564c-3.834,0-7.113,1.327-9.84,3.973
		L360.669,61.262z"/>
	<path d="M410.848,61.262c-3.477,0-6.904,1.424-10.282,4.27c-1.644-2.846-4.715-4.27-9.221-4.27c-3.516,0-6.766,1.305-9.75,3.914
		l-0.921-3.914h-3.703v31.122h5.483V69.858c2.43-2.686,5.186-4.032,8.27-4.032c3.873,0,5.81,2.354,5.81,7.056v19.502h5.482V69.858
		c2.549-2.686,5.286-4.032,8.209-4.032c3.914,0,5.868,2.322,5.868,6.965v19.594h5.485V73.09
		C421.578,65.205,418.001,61.262,410.848,61.262z"/>
</g>
</svg>
